<mxfile host="Electron" agent="Mozilla/5.0 (Macintosh; Intel Mac OS X 10_15_7) AppleWebKit/537.36 (KHTML, like Gecko) draw.io/24.7.17 Chrome/128.0.6613.36 Electron/32.0.1 Safari/537.36" version="24.7.17">
  <diagram id="ePTZrX2X6zCl4orRmWlx" name="Page-1">
    <mxGraphModel dx="979" dy="717" grid="1" gridSize="10" guides="1" tooltips="1" connect="1" arrows="1" fold="1" page="1" pageScale="1" pageWidth="850" pageHeight="1100" math="0" shadow="0">
      <root>
        <mxCell id="0" />
        <mxCell id="1" parent="0" />
        <mxCell id="wrxEFHPb02IWN1E3cYte-9" value="TrieNode" style="swimlane;fontStyle=1;align=center;verticalAlign=top;childLayout=stackLayout;horizontal=1;startSize=26;horizontalStack=0;resizeParent=1;resizeParentMax=0;resizeLast=0;collapsible=1;marginBottom=0;whiteSpace=wrap;html=1;" vertex="1" parent="1">
          <mxGeometry x="600" y="254" width="170" height="290" as="geometry" />
        </mxCell>
        <mxCell id="wrxEFHPb02IWN1E3cYte-10" value="- MAX_CHILDREN: int&lt;div&gt;- children: vector&amp;lt;TrieNode *&amp;gt;&lt;/div&gt;&lt;div&gt;- numChildren: int&lt;/div&gt;&lt;div&gt;- label: string&lt;/div&gt;&lt;div&gt;- terminalStatus: bool&lt;/div&gt;" style="text;strokeColor=none;fillColor=none;align=left;verticalAlign=top;spacingLeft=4;spacingRight=4;overflow=hidden;rotatable=0;points=[[0,0.5],[1,0.5]];portConstraint=eastwest;whiteSpace=wrap;html=1;" vertex="1" parent="wrxEFHPb02IWN1E3cYte-9">
          <mxGeometry y="26" width="170" height="84" as="geometry" />
        </mxCell>
        <mxCell id="wrxEFHPb02IWN1E3cYte-11" value="" style="line;strokeWidth=1;fillColor=none;align=left;verticalAlign=middle;spacingTop=-1;spacingLeft=3;spacingRight=3;rotatable=0;labelPosition=right;points=[];portConstraint=eastwest;strokeColor=inherit;" vertex="1" parent="wrxEFHPb02IWN1E3cYte-9">
          <mxGeometry y="110" width="170" height="8" as="geometry" />
        </mxCell>
        <mxCell id="wrxEFHPb02IWN1E3cYte-12" value="+ isTerminal(): bool&lt;div&gt;+ setTerminal(): void&lt;/div&gt;&lt;div&gt;+ isChild(): bool&lt;/div&gt;&lt;div&gt;+ addChild(): bool&lt;/div&gt;&lt;div&gt;+ removeChild(): bool&lt;/div&gt;&lt;div&gt;+ hasChildren(): bool&lt;/div&gt;&lt;div&gt;+ getChild(): TrieNode *&lt;/div&gt;&lt;div&gt;+ getChildrenString(): string&lt;/div&gt;&lt;div&gt;+ getChildren(): vector&amp;lt;TrieNode *&amp;gt;&lt;/div&gt;&lt;div&gt;+getLabel(): string&lt;/div&gt;&lt;div&gt;&lt;br&gt;&lt;/div&gt;" style="text;strokeColor=none;fillColor=none;align=left;verticalAlign=top;spacingLeft=4;spacingRight=4;overflow=hidden;rotatable=0;points=[[0,0.5],[1,0.5]];portConstraint=eastwest;whiteSpace=wrap;html=1;" vertex="1" parent="wrxEFHPb02IWN1E3cYte-9">
          <mxGeometry y="118" width="170" height="172" as="geometry" />
        </mxCell>
        <mxCell id="wrxEFHPb02IWN1E3cYte-13" value="Trie" style="swimlane;fontStyle=1;align=center;verticalAlign=top;childLayout=stackLayout;horizontal=1;startSize=26;horizontalStack=0;resizeParent=1;resizeParentMax=0;resizeLast=0;collapsible=1;marginBottom=0;whiteSpace=wrap;html=1;" vertex="1" parent="1">
          <mxGeometry x="400" y="300" width="120" height="190" as="geometry" />
        </mxCell>
        <mxCell id="wrxEFHPb02IWN1E3cYte-14" value="- root: TrieNode *&lt;div&gt;- size: int&lt;/div&gt;" style="text;strokeColor=none;fillColor=none;align=left;verticalAlign=top;spacingLeft=4;spacingRight=4;overflow=hidden;rotatable=0;points=[[0,0.5],[1,0.5]];portConstraint=eastwest;whiteSpace=wrap;html=1;" vertex="1" parent="wrxEFHPb02IWN1E3cYte-13">
          <mxGeometry y="26" width="120" height="34" as="geometry" />
        </mxCell>
        <mxCell id="wrxEFHPb02IWN1E3cYte-15" value="" style="line;strokeWidth=1;fillColor=none;align=left;verticalAlign=middle;spacingTop=-1;spacingLeft=3;spacingRight=3;rotatable=0;labelPosition=right;points=[];portConstraint=eastwest;strokeColor=inherit;" vertex="1" parent="wrxEFHPb02IWN1E3cYte-13">
          <mxGeometry y="60" width="120" height="8" as="geometry" />
        </mxCell>
        <mxCell id="wrxEFHPb02IWN1E3cYte-16" value="- printHelper(): void&lt;div&gt;- setTerminal(): void&lt;/div&gt;&lt;div&gt;+ insert(): bool&lt;/div&gt;&lt;div&gt;+ erase(): bool&lt;/div&gt;&lt;div&gt;+ classify(): string&lt;/div&gt;&lt;div&gt;+ print(): string&lt;/div&gt;&lt;div&gt;+ clear() void&lt;/div&gt;&lt;div&gt;+ getSize(): int&lt;/div&gt;" style="text;strokeColor=none;fillColor=none;align=left;verticalAlign=top;spacingLeft=4;spacingRight=4;overflow=hidden;rotatable=0;points=[[0,0.5],[1,0.5]];portConstraint=eastwest;whiteSpace=wrap;html=1;" vertex="1" parent="wrxEFHPb02IWN1E3cYte-13">
          <mxGeometry y="68" width="120" height="122" as="geometry" />
        </mxCell>
        <mxCell id="wrxEFHPb02IWN1E3cYte-17" value="Classifier" style="swimlane;fontStyle=1;align=center;verticalAlign=top;childLayout=stackLayout;horizontal=1;startSize=26;horizontalStack=0;resizeParent=1;resizeParentMax=0;resizeLast=0;collapsible=1;marginBottom=0;whiteSpace=wrap;html=1;" vertex="1" parent="1">
          <mxGeometry x="190" y="300" width="130" height="198" as="geometry" />
        </mxCell>
        <mxCell id="wrxEFHPb02IWN1E3cYte-18" value="- trie: Trie" style="text;strokeColor=none;fillColor=none;align=left;verticalAlign=top;spacingLeft=4;spacingRight=4;overflow=hidden;rotatable=0;points=[[0,0.5],[1,0.5]];portConstraint=eastwest;whiteSpace=wrap;html=1;" vertex="1" parent="wrxEFHPb02IWN1E3cYte-17">
          <mxGeometry y="26" width="130" height="24" as="geometry" />
        </mxCell>
        <mxCell id="wrxEFHPb02IWN1E3cYte-19" value="" style="line;strokeWidth=1;fillColor=none;align=left;verticalAlign=middle;spacingTop=-1;spacingLeft=3;spacingRight=3;rotatable=0;labelPosition=right;points=[];portConstraint=eastwest;strokeColor=inherit;" vertex="1" parent="wrxEFHPb02IWN1E3cYte-17">
          <mxGeometry y="50" width="130" height="8" as="geometry" />
        </mxCell>
        <mxCell id="wrxEFHPb02IWN1E3cYte-20" value="- validateInput(): void&lt;div&gt;+ load(): void&lt;/div&gt;&lt;div&gt;+ insert(): string&lt;/div&gt;&lt;div&gt;+ classify(): string&lt;/div&gt;&lt;div&gt;+ erase(): string&lt;/div&gt;&lt;div&gt;+ print(): void&lt;/div&gt;&lt;div&gt;+ empty(): bool&lt;/div&gt;&lt;div&gt;+ clear(): void&lt;/div&gt;&lt;div&gt;+ size(): int&lt;/div&gt;" style="text;strokeColor=none;fillColor=none;align=left;verticalAlign=top;spacingLeft=4;spacingRight=4;overflow=hidden;rotatable=0;points=[[0,0.5],[1,0.5]];portConstraint=eastwest;whiteSpace=wrap;html=1;" vertex="1" parent="wrxEFHPb02IWN1E3cYte-17">
          <mxGeometry y="58" width="130" height="140" as="geometry" />
        </mxCell>
        <mxCell id="wrxEFHPb02IWN1E3cYte-22" value="" style="endArrow=diamondThin;endFill=1;endSize=24;html=1;rounded=0;" edge="1" parent="1">
          <mxGeometry width="160" relative="1" as="geometry">
            <mxPoint x="600" y="398.6" as="sourcePoint" />
            <mxPoint x="520" y="398.6" as="targetPoint" />
          </mxGeometry>
        </mxCell>
        <mxCell id="wrxEFHPb02IWN1E3cYte-23" value="" style="endArrow=diamondThin;endFill=1;endSize=24;html=1;rounded=0;" edge="1" parent="1">
          <mxGeometry width="160" relative="1" as="geometry">
            <mxPoint x="400" y="398.6" as="sourcePoint" />
            <mxPoint x="320" y="398.6" as="targetPoint" />
          </mxGeometry>
        </mxCell>
      </root>
    </mxGraphModel>
  </diagram>
</mxfile>
